HIERARCHY
ROOT Hips
{
  OFFSET 50.13 94.2498 14.582
  CHANNELS 6 Xposition Yposition Zposition Zrotation Xrotation Yrotation
  JOINT spine
  {
    OFFSET 0 7.80058 0.448573
    CHANNELS 3 Zrotation Xrotation Yrotation
    JOINT spine1
    {
      OFFSET 0 10.1364 0
      CHANNELS 3 Zrotation Xrotation Yrotation
      JOINT spine2
      {
        OFFSET 0 9.71251 0
        CHANNELS 3 Zrotation Xrotation Yrotation
        JOINT Neck
        {
          OFFSET 0 24.9361 1.18887
          CHANNELS 3 Zrotation Xrotation Yrotation
          JOINT Head
          {
            OFFSET 0 7.53384 0
            CHANNELS 3 Zrotation Xrotation Yrotation
            End Site
            {
              OFFSET 0 18.2361 -6.01402
            }
          }
        }
        JOINT RightShoulder
        {
          OFFSET -4.08965 10.4888 -0.569457
          CHANNELS 3 Zrotation Xrotation Yrotation
          JOINT RightArm
          {
            OFFSET 0 13.757 0
            CHANNELS 3 Zrotation Xrotation Yrotation
            JOINT RightArmRoll
            {
              OFFSET 0 6.94478 0
              CHANNELS 3 Zrotation Xrotation Yrotation
              JOINT RightForeArm
              {
                OFFSET 0 20.2277 0
                CHANNELS 3 Zrotation Xrotation Yrotation
                JOINT RightForeArmRoll
                {
                  OFFSET 0 7.79312 0
                  CHANNELS 3 Zrotation Xrotation Yrotation
                  JOINT RightHand
                  {
                    OFFSET 0 15.6391 0
                    CHANNELS 3 Zrotation Xrotation Yrotation
                    End Site
                    {
                      OFFSET 0 0 0
                    }
                  }
                }
              }
            }
          }
        }
        JOINT LeftShoulder
        {
          OFFSET 4.08965 10.4888 -0.569457
          CHANNELS 3 Zrotation Xrotation Yrotation
          JOINT LeftArm
          {
            OFFSET 0 13.757 0
            CHANNELS 3 Zrotation Xrotation Yrotation
            JOINT LeftArmRoll
            {
              OFFSET 0 6.94478 0
              CHANNELS 3 Zrotation Xrotation Yrotation
              JOINT LeftForeArm
              {
                OFFSET 0 20.2277 0
                CHANNELS 3 Zrotation Xrotation Yrotation
                JOINT LeftForeArmRoll
                {
                  OFFSET 0 7.79312 0
                  CHANNELS 3 Zrotation Xrotation Yrotation
                  JOINT LeftHand
                  {
                    OFFSET 0 15.6391 0
                    CHANNELS 3 Zrotation Xrotation Yrotation
                    End Site
                    {
                      OFFSET 0 0 0
                    }
                  }
                }
              }
            }
          }
        }
      }
    }
  }
  JOINT RightUpLeg
  {
    OFFSET -6.91415 -1.26788 -1.06358
    CHANNELS 3 Zrotation Xrotation Yrotation
    JOINT RightUpLegRoll
    {
      OFFSET 0 18.3378 0
      CHANNELS 3 Zrotation Xrotation Yrotation
      JOINT RightLeg
      {
        OFFSET 0 -22.7085 0
        CHANNELS 3 Zrotation Xrotation Yrotation
        JOINT RightLegRoll
        {
          OFFSET 0 22.7828 0
          CHANNELS 3 Zrotation Xrotation Yrotation
          JOINT RightFoot
          {
            OFFSET 0 18.9629 0
            CHANNELS 3 Zrotation Xrotation Yrotation
            JOINT RightToeBase
            {
              OFFSET 0 15.852 0
              CHANNELS 3 Zrotation Xrotation Yrotation
              End Site
              {
                OFFSET 0.00671906 7.67701 -0.884893
              }
            }
          }
        }
      }
    }
  }
  JOINT LeftUpLeg
  {
    OFFSET 6.91415 -1.26788 -1.06358
    CHANNELS 3 Zrotation Xrotation Yrotation
    JOINT LeftUpLegRoll
    {
      OFFSET 0 18.3379 0
      CHANNELS 3 Zrotation Xrotation Yrotation
      JOINT LeftLeg
      {
        OFFSET 0 22.7084 0
        CHANNELS 3 Zrotation Xrotation Yrotation
        JOINT LeftLegRoll
        {
          OFFSET 0 22.9934 0
          CHANNELS 3 Zrotation Xrotation Yrotation
          JOINT LeftFoot
          {
            OFFSET 0 18.7522 0
            CHANNELS 3 Zrotation Xrotation Yrotation
            JOINT LeftToeBase
            {
              OFFSET 0 15.852 0
              CHANNELS 3 Zrotation Xrotation Yrotation
              End Site
              {
                OFFSET -0.030112 7.67701 -0.884893
              }
            }
          }
        }
      }
    }
  }
}
MOTION
Frames: 8
Frame Time: 0.00208333
49.6867 94.1924 13.461 -1.11315 -7.53989 -3.55831 -0.562401 -1.1745 0.141874 -1.13076 1.65579 0.345724 -1.13584 3.30066 0.364867 3.29458 8.78 -3.89536 16.1888 -6.66356 -0.554946 26.2845 -12.9411 -9.40124 11.0535 61.8227 46.7287 -3.18055e-015 3.18055e-015 -0 -159.707 82.6196 153.916 1.31736e-005 1.60735e-006 -2.99999 8.02908 -4.95144 0.697682 -68.4342 -0.198112 1.2572 -103.666 -1.05461 -15.8031 1.00444e-005 3.02634e-006 -2.06666e-006 -4.80924 19.6737 2.09214 4.0087e-006 1.52755e-006 3 -8.02927 -4.95144 -0.697654 178.69 -1.00357 0.405117 180 7.01542e-015 178.904 177.772 11.2532 179.691 -6.88115e-008 -1.91501e-007 0.207208 -19.0475 69.2239 20.5733 8.13649 25.2327 -3.48774 -178.87 -4.82679 5.48368 4.54188e-006 -4.6773e-006 -1.39139 -5.11188 -10.7414 -0.288741 -1.84221e-007 -5.43249e-006 -0.220367 24.0878 71.2409 -22.9268 -8.13649 25.2327 3.48774 
49.6835 94.2034 13.4568 -1.1132 -7.51903 -3.56584 -0.560354 -1.17744 0.142329 -1.12786 1.64923 0.34681 -1.13295 3.2941 0.365903 3.26434 8.74388 -3.89507 16.2034 -6.64187 -0.56351 26.2949 -12.9478 -9.40831 11.1376 61.7711 47.1162 3.18055e-015 -3.18055e-015 -0 -159.931 82.8027 154.292 1.31736e-005 1.60735e-006 -2.99999 8.02908 -4.95144 0.697682 -68.42 -0.209707 1.26148 -103.679 -1.05598 -15.7726 1.00444e-005 3.02634e-006 -2.06666e-006 -4.82858 19.6802 2.09693 4.0087e-006 1.52755e-006 3 -8.02927 -4.95144 -0.697654 178.691 -0.986897 0.402106 180 7.01542e-015 178.904 177.77 11.2439 179.691 -6.88115e-008 -1.91501e-007 0.207219 -19.0535 69.2297 20.578 8.13649 25.2327 -3.48774 -178.864 -4.80957 5.47742 4.54188e-006 -4.6773e-006 -1.39065 -5.12017 -10.734 -0.288787 -1.84221e-007 -5.43249e-006 -0.219643 24.0741 71.2376 -22.9217 -8.13649 25.2327 3.48774 
49.6789 94.2297 13.4531 -1.11298 -7.49796 -3.57267 -0.558496 -1.18043 0.142763 -1.12526 1.64255 0.347851 -1.13036 3.28742 0.3669 3.23757 8.70794 -3.8953 16.214 -6.62037 -0.572399 26.3054 -12.9551 -9.41606 11.2216 61.7171 47.5055 -3.18055e-015 3.18055e-015 3.18055e-015 -160.148 82.9915 154.661 1.31736e-005 1.60735e-006 -2.99999 8.02908 -4.95144 0.697682 -68.4051 -0.221433 1.26574 -103.693 -1.05702 -15.7426 1.00444e-005 3.02634e-006 -2.06666e-006 -4.84723 19.6861 2.10154 4.0087e-006 1.52755e-006 3 -8.02927 -4.95144 -0.697654 178.692 -0.969922 0.399229 180 7.01542e-015 178.903 177.769 11.235 179.691 -6.88115e-008 -1.91501e-007 0.207243 -19.0597 69.2356 20.5829 8.13649 25.2327 -3.48774 -178.859 -4.79202 5.47126 4.54188e-006 -4.6773e-006 -1.38989 -5.12851 -10.7268 -0.288874 -1.84221e-007 -5.43249e-006 -0.218885 24.0604 71.2344 -22.9168 -8.13649 25.2327 3.48774 
49.68 94.225 13.4513 -1.11246 -7.47679 -3.57881 -0.556886 -1.18347 0.143171 -1.12304 1.63583 0.348844 -1.12815 3.2807 0.367857 3.21522 8.67227 -3.89615 16.2199 -6.59935 -0.581584 26.3163 -12.9629 -9.42443 11.3046 61.6608 47.8977 -3.18055e-015 0 -3.18055e-015 -160.356 83.1865 155.022 1.31736e-005 1.60735e-006 -2.99999 8.02908 -4.95144 0.697682 -68.3893 -0.233246 1.26995 -103.708 -1.05773 -15.7133 1.00444e-005 3.02634e-006 -2.06666e-006 -4.86507 19.6916 2.10596 4.0087e-006 1.52755e-006 3 -8.02927 -4.95144 -0.697654 178.693 -0.952616 0.396546 180 7.01542e-015 178.903 177.767 11.2267 179.691 -6.88115e-008 -1.91501e-007 0.207289 -19.0663 69.2417 20.5881 8.13649 25.2327 -3.48774 -178.854 -4.77422 5.46524 4.54188e-006 -4.6773e-006 -1.38913 -5.1369 -10.7199 -0.289014 -1.84221e-007 -5.43249e-006 -0.218085 24.0467 71.2314 -22.9121 -8.13649 25.2327 3.48774 
49.6825 94.2369 13.4451 -1.11161 -7.45561 -3.58426 -0.555585 -1.18653 0.143552 -1.12129 1.62912 0.349789 -1.1264 3.27399 0.368775 3.19821 8.63697 -3.89773 16.2201 -6.57912 -0.591037 26.328 -12.9713 -9.43337 11.3854 61.6021 48.294 -6.36111e-015 3.18055e-015 -0 -160.554 83.3883 155.374 1.31736e-005 1.60735e-006 -2.99999 8.02908 -4.95144 0.697682 -68.3725 -0.2451 1.27408 -103.723 -1.05814 -15.6848 1.00444e-005 3.02634e-006 -2.06666e-006 -4.88196 19.6969 2.11018 4.0087e-006 1.52755e-006 3 -8.02927 -4.95144 -0.697654 178.693 -0.934952 0.394117 180 7.01542e-015 178.903 177.765 11.2192 179.691 -6.88115e-008 -1.91501e-007 0.207366 -19.0732 69.248 20.5937 8.13649 25.2327 -3.48774 -178.849 -4.75622 5.45939 4.54188e-006 -4.6773e-006 -1.38835 -5.1453 -10.7133 -0.289215 -1.84221e-007 -5.43249e-006 -0.217236 24.0329 71.2285 -22.9077 -8.13649 25.2327 3.48774 
49.6747 94.2276 13.4424 -1.11039 -7.43453 -3.58902 -0.554651 -1.1896 0.143901 -1.12007 1.62247 0.350684 -1.12519 3.26734 0.369654 3.18748 8.60212 -3.90013 16.2139 -6.55999 -0.600729 26.3406 -12.9802 -9.44284 11.463 61.5412 48.6954 -1.76556e-031 3.18055e-015 3.18055e-015 -160.74 83.5976 155.714 1.31736e-005 1.60735e-006 -2.99999 8.02908 -4.95144 0.697682 -68.3547 -0.25695 1.2781 -103.74 -1.05822 -15.6574 1.00444e-005 3.02634e-006 -2.06666e-006 -4.89779 19.7022 2.11418 4.0087e-006 1.52755e-006 3 -8.02927 -4.95144 -0.697654 178.692 -0.916904 0.392001 180 7.01542e-015 178.903 177.763 11.2127 179.691 -6.88115e-008 -1.91501e-007 0.207483 -19.0806 69.2547 20.5998 8.13649 25.2327 -3.48774 -178.845 -4.73812 5.45374 4.54188e-006 -4.6773e-006 -1.38756 -5.1537 -10.7071 -0.28949 -1.84221e-007 -5.43249e-006 -0.216331 24.0193 71.2259 -22.9034 -8.13649 25.2327 3.48774 
49.6676 94.2318 13.4303 -1.10878 -7.41365 -3.5931 -0.554145 -1.19264 0.144218 -1.11948 1.61594 0.351528 -1.1246 3.26081 0.370494 3.18396 8.56781 -3.90346 16.2005 -6.54226 -0.610631 26.3546 -12.9896 -9.45278 11.5362 61.4781 49.103 -6.36111e-015 0 9.54166e-015 -160.911 83.815 156.039 1.31736e-005 1.60735e-006 -2.99999 8.02908 -4.95144 0.697682 -68.3357 -0.26875 1.28197 -103.757 -1.05799 -15.631 1.00444e-005 3.02634e-006 -2.06666e-006 -4.91241 19.7075 2.11794 4.0087e-006 1.52755e-006 3 -8.02927 -4.95144 -0.697654 178.692 -0.898445 0.390259 180 7.01542e-015 178.904 177.76 11.2074 179.692 -6.88115e-008 -1.91501e-007 0.207649 -19.0886 69.2617 20.6063 8.13649 25.2327 -3.48774 -178.84 -4.71999 5.44834 4.54188e-006 -4.6773e-006 -1.38675 -5.16208 -10.7014 -0.289848 -1.84221e-007 -5.43249e-006 -0.215363 24.0057 71.2235 -22.8995 -8.13649 25.2327 3.48774 
49.6721 94.2429 13.4293 -1.10674 -7.39306 -3.5965 -0.554127 -1.19565 0.144498 -1.11958 1.60959 0.35232 -1.12471 3.25446 0.371295 3.18858 8.53413 -3.90783 16.1791 -6.52624 -0.620716 26.37 -12.9994 -9.46315 11.604 61.4127 49.5178 -3.18055e-015 -6.36111e-015 -0 -161.066 84.041 156.349 1.31736e-005 1.60735e-006 -2.99999 8.02908 -4.95144 0.697682 -68.3154 -0.280455 1.28566 -103.776 -1.05746 -15.606 1.00444e-005 3.02634e-006 -2.06666e-006 -4.92572 19.7131 2.12146 4.0087e-006 1.52755e-006 3 -8.02927 -4.95144 -0.697654 178.69 -0.879546 0.388951 180 7.01542e-015 178.904 177.758 11.2036 179.692 -6.88115e-008 -1.91501e-007 0.207875 -19.0973 69.2691 20.6134 8.13649 25.2327 -3.48774 -178.837 -4.7019 5.44321 4.54188e-006 -4.6773e-006 -1.38593 -5.17041 -10.6963 -0.2903 -1.84221e-007 -5.43249e-006 -0.214326 23.9924 71.2214 -22.8958 -8.13649 25.2327 3.48774 
